<svg width="800" height="333" xmlns="http://www.w3.org/2000/svg">
 <style type="text/css">.st0{fill:none;}
	.st1{fill:#FFFFFF;}
	.st2{fill:#00ADEE;}
	.st3{fill:url(#SVGID_1_);}
	.st4{fill:url(#SVGID_2_);}
	.st5{fill:url(#SVGID_3_);}
	.st6{fill:url(#SVGID_4_);}
	.st7{opacity:0.5;fill:none;}
	.st8{fill:#00AEEF;}</style>

 <g>
  <title>background</title>
  <rect fill="none" id="canvas_background" height="335" width="802" y="-1" x="-1"/>
 </g>
 <g>
  <title>Layer 1</title>
  <g stroke="null" id="svg_1">
   <g stroke="null" id="svg_2">
    <g stroke="null" id="svg_3">
     <path stroke="null" id="svg_4" d="m505.643803,175.164546c19.672068,0 36.694699,-7.021007 50.571124,-20.897432c13.876425,-13.876425 20.897432,-30.865938 20.897432,-50.538006c0,-2.848145 -0.16559,-5.630053 -0.463651,-8.378844c-43.848178,4.967694 -91.802984,8.875613 -142.407226,11.35946c0.662359,18.413585 7.683367,34.40956 20.831197,47.590508c13.876425,13.810189 30.865938,20.864314 50.571124,20.864314z" class="st0"/>
     <path stroke="null" id="svg_5" d="m53.252476,154.267113c13.876425,13.876425 30.899056,20.897432 50.571124,20.897432c19.672068,0 36.694699,-7.054125 50.63736,-20.963668c11.425696,-11.425696 18.18176,-25.037177 20.201955,-40.470147l-74.581645,0l0,-13.743953c-24.142992,-2.550083 -46.464497,-5.530699 -66.666452,-8.941849c-0.695477,4.073509 -1.059775,8.27949 -1.059775,12.617943c0,19.705186 7.021007,36.727817 20.897432,50.604242z" class="st0"/>
     <path stroke="null" id="svg_6" d="m577.112359,103.695989c0,19.672068 -7.021007,36.694699 -20.897432,50.538006c-13.876425,13.876425 -30.865938,20.897432 -50.571124,20.897432c-19.672068,0 -36.694699,-7.021007 -50.571124,-20.897432c-13.14783,-13.14783 -20.168837,-29.143804 -20.831197,-47.590508c-6.623592,0.33118 -13.31342,0.629241 -20.036365,0.894185c0.894185,23.513751 9.836034,43.98065 26.726193,60.837692c17.784344,17.784344 39.575962,26.792429 64.712493,26.792429c25.169649,0 46.928149,-9.008085 64.712493,-26.792429c17.784344,-17.784344 26.792429,-39.575962 26.792429,-64.712493c0,-3.676094 -0.198708,-7.252833 -0.596123,-10.763337c-6.557356,0.827949 -13.180948,1.62278 -19.937012,2.384493c0.33118,2.781909 0.496769,5.563817 0.496769,8.411962z" class="st1"/>
     <path stroke="null" id="svg_7" d="m100.048153,113.730731l74.581645,0c-1.987078,15.432969 -8.776259,29.04445 -20.201955,40.470147c-13.909543,13.909543 -30.932174,20.963668 -50.63736,20.963668c-19.672068,0 -36.694699,-7.021007 -50.571124,-20.897432c-13.876425,-13.876425 -20.897432,-30.865938 -20.897432,-50.538006c0,-4.338453 0.364298,-8.544434 1.059775,-12.617943c-6.8223,-1.159129 -13.412774,-2.351375 -19.771422,-3.57674c-0.894185,5.232638 -1.357836,10.630865 -1.357836,16.2278c0,25.169649 9.008085,46.928149 26.792429,64.712493c17.784344,17.784344 39.542844,26.792429 64.712493,26.792429c25.136531,0 46.928149,-9.008085 64.712493,-26.792429c16.956395,-16.956395 25.931362,-37.555766 26.726193,-61.268225c-34.012144,-1.655898 -65.937857,-4.073509 -95.214134,-7.153479l0,13.677717l0.066236,0z" class="st1"/>
     <path stroke="null" id="svg_8" d="m240.00465,168.408482c17.784344,17.784344 39.542844,26.792429 64.712493,26.792429c25.136531,0 46.928149,-9.008085 64.712493,-26.792429c10.630865,-10.597747 18.082406,-22.685802 22.387741,-35.966104l-21.460438,0c-3.444268,7.882074 -8.44508,15.168025 -15.002436,21.758499c-13.909543,13.909543 -30.932174,20.963668 -50.63736,20.963668c-19.672068,0 -36.694699,-7.021007 -50.571124,-20.897432c-12.684178,-12.684178 -19.63895,-27.984676 -20.731843,-45.570312c-6.789182,-0.198708 -13.512127,-0.430533 -20.135719,-0.695477c0.993539,23.315043 9.968506,43.649471 26.726193,60.407158z" class="st1"/>
     <path stroke="null" id="svg_9" d="m622.782026,189.637094l12.684178,0l89.948378,-119.191536c-4.967694,1.225365 -10.100978,2.384493 -15.366733,3.57674l-87.265823,115.614797z" class="st2"/>
     <path stroke="null" id="svg_10" d="m678.486433,86.80583l-77.595379,102.996854l12.684178,0l71.402321,-94.386185l6.193058,-8.610669l-5.596935,-7.749603c-3.709211,0.728595 -7.484659,1.424072 -11.326342,2.119549l4.239099,5.630053z" class="st1"/>
     <path stroke="null" id="svg_11" d="m663.086582,95.019084l6.193058,-8.610669l-2.881262,-3.808565c-3.709211,0.662359 -7.451541,1.2916 -11.260106,1.920842l7.94831,10.498393z" class="st1"/>
     <path stroke="null" id="svg_12" d="m696.767547,81.109541l3.974155,-5.067048c-2.218903,0.463651 -4.470925,0.927303 -6.756064,1.390954l2.781909,3.676094z" class="st1"/>
     <polygon stroke="null" id="svg_13" points="768.7991493901825,189.63713859084191 713.2272173929775,115.58532859491925 706.7360245621492,107.23963918555773 700.2449327993124,115.58532859491925 706.7360245621492,124.19601827835095 756.1149143038526,189.63713859084191 " class="st2"/>
     <path stroke="null" id="svg_14" d="m717.598744,92.800181l-6.49112,8.610669l6.49112,8.345726l60.274686,80.046108l12.98224,0l-66.732688,-88.391834l28.812625,-38.251243c-5.232638,1.556544 -10.697101,3.046852 -16.39339,4.53716l-18.943473,25.103413z" class="st2"/>
     <polygon stroke="null" id="svg_15" points="695.873337889079,122.2751200293128 689.3822461262423,130.58776020540927 695.873337889079,139.19844988884097 734.0583411491205,189.63713859084191 746.7425762354503,189.63713859084191 702.0663801445805,130.58776020540927 " class="st2"/>
     <path stroke="null" id="svg_16" d="m53.252476,53.124865c13.876425,-13.876425 30.899056,-20.897432 50.571124,-20.897432c19.672068,0 36.694699,6.987889 50.63736,20.831197l2.649437,2.616319l14.108251,-14.075133l-2.649437,-2.649437c-17.784344,-17.784344 -39.575962,-26.792429 -64.712493,-26.792429c-25.169649,0 -46.928149,9.008085 -64.712493,26.792429c-13.843307,13.843307 -22.354623,30.104225 -25.467711,48.484693c6.32553,1.258482 12.916004,2.450729 19.771422,3.57674c2.351375,-14.340076 9.008085,-27.057373 19.80454,-37.886946z"/>
     <path stroke="null" id="svg_17" d="m195.36164,93.661247l-95.280369,0l0,6.32553c29.276276,3.07997 61.201989,5.497581 95.214134,7.153479c0.033118,-1.159129 0.066236,-2.285139 0.066236,-3.444268l0,-10.034742z"/>
     <g stroke="null" id="svg_18">
      <path stroke="null" id="svg_19" d="m154.46096,53.091747l2.649437,2.616319l14.108251,-14.075133l-2.649437,-2.649437c-17.784344,-17.784344 -39.575962,-26.792429 -64.712493,-26.792429c-25.169649,0 -46.928149,9.008085 -64.712493,26.792429c-13.843307,13.843307 -22.354623,30.104225 -25.467711,48.484693c6.32553,1.258482 12.916004,2.450729 19.771422,3.57674c2.417611,-14.406312 9.041203,-27.123609 19.870776,-37.920064c13.876425,-13.876425 30.899056,-20.897432 50.571124,-20.897432c19.605832,0.033118 36.628463,7.021007 50.571124,20.864314z" class="st3"/>
      <path stroke="null" id="svg_20" d="m100.048153,93.661247l0,6.32553c29.276276,3.07997 61.201989,5.497581 95.214134,7.153479c0.033118,-1.159129 0.066236,-2.285139 0.066236,-3.444268l0,-10.034742l-95.280369,0z" class="st4"/>
     </g>
     <path stroke="null" id="svg_21" d="m505.643803,12.157949c-25.169649,0 -46.928149,9.008085 -64.712493,26.792429c-17.784344,17.784344 -26.792429,39.542844 -26.792429,64.712493c0,1.2916 0.033118,2.583201 0.099354,3.874801c6.722946,-0.264944 13.412774,-0.596123 20.036365,-0.894185c-0.033118,-0.993539 -0.066236,-1.987078 -0.066236,-2.980616c0,-19.672068 7.021007,-36.694699 20.897432,-50.571124c13.876425,-13.876425 30.899056,-20.897432 50.571124,-20.897432c19.672068,0 36.694699,7.021007 50.571124,20.897432c11.85623,11.85623 18.711647,26.030716 20.466899,42.19228c6.722946,-0.761713 13.379656,-1.556544 19.937012,-2.384493c-2.252021,-20.665607 -11.028281,-38.781131 -26.229424,-53.949156c-17.85058,-17.751226 -39.642198,-26.792429 -64.778729,-26.792429z"/>
     <path stroke="null" id="svg_22" d="m505.643803,12.157949c-25.169649,0 -46.928149,9.008085 -64.712493,26.792429c-17.784344,17.784344 -26.792429,39.542844 -26.792429,64.712493c0,1.2916 0.033118,2.583201 0.099354,3.874801c6.722946,-0.264944 13.412774,-0.596123 20.036365,-0.894185c-0.033118,-0.993539 -0.066236,-1.987078 -0.066236,-2.980616c0,-19.672068 7.021007,-36.694699 20.897432,-50.571124c13.876425,-13.876425 30.899056,-20.897432 50.571124,-20.897432c19.672068,0 36.694699,7.021007 50.571124,20.897432c11.85623,11.85623 18.711647,26.030716 20.466899,42.19228c6.722946,-0.761713 13.379656,-1.556544 19.937012,-2.384493c-2.252021,-20.665607 -11.028281,-38.781131 -26.229424,-53.949156c-17.85058,-17.751226 -39.642198,-26.792429 -64.778729,-26.792429z" class="st5"/>
     <path stroke="null" id="svg_23" d="m254.146018,53.124865c13.876425,-13.876425 30.899056,-20.897432 50.571124,-20.897432c19.672068,0 36.694699,6.987889 50.604242,20.798079c6.557356,6.65671 11.591286,13.975779 15.035554,21.890971l21.42732,0c-4.305335,-13.280302 -11.756876,-25.368357 -22.387741,-35.966104c-17.784344,-17.784344 -39.575962,-26.792429 -64.712493,-26.792429c-25.169649,0 -46.961267,9.008085 -64.712493,26.792429c-17.784344,17.784344 -26.825547,39.542844 -26.825547,64.712493c0,1.424072 0.033118,2.848145 0.099354,4.272217c6.623592,0.264944 13.346538,0.496769 20.135719,0.695477c-0.099354,-1.62278 -0.16559,-3.278678 -0.16559,-4.967694c0.033118,-19.63895 7.087243,-36.661581 20.93055,-50.538006z"/>
     <path stroke="null" id="svg_24" d="m254.146018,53.124865c13.876425,-13.876425 30.899056,-20.897432 50.571124,-20.897432c19.672068,0 36.694699,6.987889 50.604242,20.798079c6.557356,6.65671 11.591286,13.975779 15.035554,21.890971l21.42732,0c-4.305335,-13.280302 -11.756876,-25.368357 -22.387741,-35.966104c-17.784344,-17.784344 -39.575962,-26.792429 -64.712493,-26.792429c-25.169649,0 -46.961267,9.008085 -64.712493,26.792429c-17.784344,17.784344 -26.825547,39.542844 -26.825547,64.712493c0,1.424072 0.033118,2.848145 0.099354,4.272217c6.623592,0.264944 13.346538,0.496769 20.135719,0.695477c-0.099354,-1.62278 -0.16559,-3.278678 -0.16559,-4.967694c0.033118,-19.63895 7.087243,-36.661581 20.93055,-50.538006z" class="st6"/>
     <path stroke="null" id="svg_25" d="m751.57777,19.013367l-41.529921,55.042049c5.265756,-1.159129 10.399039,-2.351375 15.366733,-3.57674l38.847366,-51.465309l-12.684178,0z" class="st2"/>
     <path stroke="null" id="svg_26" d="m640.003364,19.013367l-12.684178,0l46.928149,62.195528c3.841683,-0.695477 7.617131,-1.390954 11.326342,-2.119549l-0.430533,-0.596123l-45.139779,-59.479855z" class="st1"/>
     <path stroke="null" id="svg_27" d="m605.726276,19.013367l49.445114,65.507324c3.808565,-0.629241 7.550895,-1.258482 11.260106,-1.920842l-47.987923,-63.586482l-12.717296,0z" class="st1"/>
     <path stroke="null" id="svg_28" d="m662.788521,19.013367l-12.98224,0l44.179358,58.420081c2.285139,-0.463651 4.504042,-0.927303 6.756064,-1.390954l2.516965,-3.24556l-40.470147,-53.783566z" class="st1"/>
     <path stroke="null" id="svg_29" d="m773.17068,19.013367l-36.661581,48.6834c5.729407,-1.490308 11.160752,-3.013734 16.39339,-4.53716l33.250431,-44.14624l-12.98224,0z" class="st2"/>
    </g>
    <rect stroke="null" id="svg_30" height="224.606001" width="781.749434" class="st7" y="11.33" x="9.04"/>
   </g>
   <g stroke="null" id="svg_31">
    <rect stroke="null" id="svg_32" height="101.903961" width="779.331823" class="st8" y="226.06685" x="11.888145"/>
    <g stroke="null" id="svg_33">
     <path stroke="null" id="svg_34" d="m547.935437,244.116137c15.466087,0 27.123609,2.616319 34.873211,7.882074c7.78272,5.265756 11.657522,13.578363 11.657522,24.937824c0,11.425696 -3.874801,19.771422 -11.624404,25.037177c-7.749603,5.265756 -19.374006,7.915192 -34.939447,7.915192c-15.598559,0 -27.256081,-2.616319 -34.972565,-7.915192c-7.716485,-5.265756 -11.558168,-13.611481 -11.558168,-25.037177c0,-11.35946 3.874801,-19.672068 11.624404,-24.937824c7.749603,-5.232638 19.407124,-7.882074 34.939447,-7.882074zm0,49.213288c4.934576,0 9.140557,-0.198708 12.551707,-0.629241c3.41115,-0.397416 6.193058,-1.225365 8.312608,-2.417611c2.119549,-1.192247 3.676094,-2.881262 4.603396,-5.000812c0.960421,-2.119549 1.424072,-4.901458 1.424072,-8.345726c0,-3.41115 -0.463651,-6.193058 -1.424072,-8.345726c-0.960421,-2.119549 -2.483847,-3.775447 -4.603396,-4.934576c-2.119549,-1.159129 -4.901458,-1.95396 -8.312608,-2.384493c-3.41115,-0.430533 -7.617131,-0.629241 -12.551707,-0.629241c-4.934576,0 -9.140557,0.198708 -12.551707,0.629241c-3.444268,0.397416 -6.193058,1.192247 -8.345726,2.384493c-2.119549,1.192247 -3.676094,2.815027 -4.603396,4.934576c-0.960421,2.119549 -1.424072,4.901458 -1.424072,8.345726c0,3.41115 0.463651,6.193058 1.424072,8.345726c0.960421,2.119549 2.483847,3.775447 4.603396,5.000812c2.119549,1.192247 4.901458,2.020196 8.345726,2.417611c3.41115,0.430533 7.617131,0.629241 12.551707,0.629241z" class="st1"/>
     <path stroke="null" id="svg_35" d="m683.553481,245.175912l-12.750414,16.55898l-22.752038,0l0,47.126856l-19.705186,0l0,-47.126856l-29.872399,0l12.750414,-16.55898l72.329624,0z" class="st1"/>
     <path stroke="null" id="svg_36" d="m761.513158,292.468358l-12.651061,16.360272l-31.991949,0c-5.530699,0 -10.630865,-0.827949 -15.333615,-2.483847c-4.70275,-1.655898 -8.743141,-3.907919 -12.121173,-6.789182c-3.41115,-2.881262 -6.060587,-6.32553 -7.981428,-10.299685c-1.920842,-3.974155 -2.91438,-8.27949 -2.91438,-12.882886c0,-4.636514 0.960421,-8.875613 2.91438,-12.717296c1.920842,-3.841683 4.603396,-7.153479 7.981428,-9.90227c3.41115,-2.748791 7.451541,-4.901458 12.121173,-6.391766c4.70275,-1.490308 9.802916,-2.252021 15.333615,-2.252021l44.643009,0l-12.651061,16.55898l-31.991949,0c-2.682555,0 -5.133284,0.397416 -7.418423,1.159129c-2.285139,0.761713 -4.239099,1.821488 -5.894997,3.179324c-1.655898,1.357836 -2.947498,3.013734 -3.907919,4.901458c-0.960421,1.887724 -1.424072,4.007273 -1.424072,6.292412c0,2.285139 0.463651,4.371571 1.390954,6.226176c0.927303,1.887724 2.218903,3.477386 3.907919,4.802104c1.689016,1.324718 3.676094,2.351375 5.961233,3.07997c2.285139,0.728595 4.768986,1.092893 7.418423,1.092893l44.609891,0l0,0.066236z" class="st1"/>
    </g>
   </g>
  </g>
 </g>
</svg>